# xmcd
#
# Track frame offsets:
#	150
#	58676
#	80891
#	138012
#
# Disc length: 2109 seconds
#
# Revision: 1
# Processed by: cddbd v1.5.2PL0 Copyright (c) Steve Scherf et al.
# Submitted via: audiograbber 1.83.01
#
DISCID=30083b04
DTITLE=Grateful Dead - 95-04-05 BJCC Coliseum, Birmingham AL
DYEAR=1900
DGENRE=
TTITLE0=Space
TTITLE1=I Need A Miracle
TTITLE2=Morning Dew
TTITLE3=Johnny B Goode
EXTD=
EXTT0=
EXTT1=
EXTT2=
EXTT3=
PLAYORDER=
